SplineFontDB: 3.0
FontName: AyannaNarrow
FullName: Ayanna Narrow
FamilyName: AyannaNarrow
Weight: Regular
Copyright: Copyright (c) 2015, mooniak
UComments: "2015-3-5: Created with FontForge (http://fontforge.org)"
Version: pre
ItalicAngle: 0
UnderlinePosition: -102
UnderlineWidth: 51
Ascent: 819
Descent: 205
InvalidEm: 0
LayerCount: 2
Layer: 0 0 "Back" 1
Layer: 1 0 "Fore" 0
XUID: [1021 417 1726274797 7187508]
OS2Version: 0
OS2_WeightWidthSlopeOnly: 0
OS2_UseTypoMetrics: 1
CreationTime: 1425560291
ModificationTime: 1433518921
OS2TypoAscent: 0
OS2TypoAOffset: 1
OS2TypoDescent: 0
OS2TypoDOffset: 1
OS2TypoLinegap: 0
OS2WinAscent: 0
OS2WinAOffset: 1
OS2WinDescent: 0
OS2WinDOffset: 1
HheadAscent: 0
HheadAOffset: 1
HheadDescent: 0
HheadDOffset: 1
OS2CapHeight: 0
OS2XHeight: 0
OS2Vendor: 'PfEd'
MarkAttachClasses: 1
DEI: 91125
Encoding: Custom
UnicodeInterp: none
NameList: AGL For New Fonts
DisplaySize: -128
AntiAlias: 1
FitToEm: 1
WinInfo: 0 9 5
BeginPrivate: 0
EndPrivate
Grid
312.333333333 1331 m 0
 312.333333333 -717 l 1024
552 1331 m 0
 552 -717 l 1024
  Named: "rsb"
37 1331 m 0
 37 -717 l 1024
  Named: "lsb"
-1024 320.999990433 m 0
 2048 320.999990433 l 1024
-1024 745 m 0
 2048 745 l 1024
-1024 93 m 0
 2048 93 l 1024
  Named: "Spike bottom"
EndSplineSet
BeginChars: 21 21

StartChar: si_Ta
Encoding: 0 3495 0
Width: 506
VWidth: 0
Flags: HW
HStem: 0 30<158.38 294.719> 418 30<117.819 236.068> 714 30<156.069 287.832>
VStem: 27 32<148.713 348.239> 39 29<593.528 620.696> 417 32<206.65 521.148>
LayerCount: 2
Back
SplineSet
0.373046875 586.720703125 m 5
 26.7265625 664.909179688 95.6154749696 754.783203125 233.71484375 754.783203125 c 0
 468.872070312 754.783203125 489 488.815429688 489 377.395507812 c 0
 489 265.669921875 465.32421875 0 230.145507812 0 c 0
 78.2744140625 0 11 136.287109375 11 252.395507812 c 0
 11 395.890625 90.8232421875 471.313476562 181.131835938 471.313476562 c 0
 214 471.313476562 237.494140625 461.571289062 260.865234375 445.2578125 c 1
 223 345 l 1
 211.596864211 351.578732186 197.251496607 357.140466157 182.862150743 357.140466157 c 0
 141.34570947 357.140466157 121 305.662252054 121 252.395507812 c 0
 121 168.212890625 176.606445312 115.115234375 230.145507812 115.115234375 c 0
 335.255859375 115.115234375 374.883789062 244.619140625 374.883789062 377.395507812 c 0
 374.883789062 510.4375 336.513671875 639.66796875 233.71484375 639.66796875 c 0
 162.786846769 639.66796875 126 588 110.473632812 545.430664062 c 1
 0.373046875 586.720703125 l 5
EndSplineSet
Fore
SplineSet
39 596 m 1xec
 60 673 122 744 220 744 c 0
 424 744 449 491 449 377 c 0
 449 263 445 0 221 0 c 0
 77 0 27 132 27 247 c 0
 27 389 85 448 170 448 c 0
 196 448 219 443 242 432 c 1xf4
 233 403 l 1
 218 410 198 418 170 418 c 0
 86 417 59 341 59 247 c 0xf4
 59 158 94 30 225 30 c 0
 395 30 417 237 417 377 c 0
 417 512 381 714 221 714 c 0
 117 714 81 627 68 586 c 1
 39 596 l 1xec
EndSplineSet
EndChar

StartChar: si_Sa
Encoding: 1 3523 1
Width: 569
VWidth: 0
Flags: HW
LayerCount: 2
Back
SplineSet
255.755859375 416 m 1
 255.755859375 546.102539062 327.887695312 594 397.5625 594 c 0
 476.985351562 594 542.755859375 530 515.755859375 415.127929688 c 1
 434.756835938 436 l 0
 444.270507812 473.038085938 427.013671875 501.284179688 394.250976562 501.284179688 c 0
 368.225585938 501.284179688 326.755859375 485 340.755859375 416 c 1
 440.265625 422.436523438 492.453125 405 521.755859375 342 c 0
 579.412109375 218.041992188 548.833984375 0 401 0 c 0
 345.080078125 0 305.057617188 33.14453125 290.237304688 79.0302734375 c 1
 274.091796875 31.6025390625 230.919921875 0 178.240234375 0 c 0
 37.92578125 0 2.802734375 192.653320312 54.220703125 319.563476562 c 9
 10.18359375 319.666992188 l 1
 10.18359375 416 l 1
 245.755859375 416 l 1
 256.755859375 486 218.286132812 501.284179688 192.260742188 501.284179688 c 0
 153.77734375 501.284179688 136.688476562 462.313476562 159.24609375 415.8984375 c 1
 117.755859375 399 l 1
 76 416 l 1
 41 521 109.526367188 594 188.94921875 594 c 0
 258.624023438 594 330.755859375 546.102539062 330.755859375 416 c 1
 255.755859375 416 l 1
185.755859375 122 m 0
 232.456054688 122 244.630859375 176.75 244.630859375 249.5 c 1
 340.541992188 249.5 l 1
 340.541992188 176.75 353.884765625 122 396.875 122 c 0
 468.755859375 122 469.755859375 319.563476562 389.875 319.563476562 c 2
 192.755859375 319.563476562 l 2
 113.1875 319.563476562 113.755859375 122 185.755859375 122 c 0
EndSplineSet
Fore
SplineSet
77.5595703125 204.450195312 m 0xe4
 77.5595703125 127.140625 93.3330078125 30.5634765625 185.520507812 30.5634765625 c 0
 271.520507812 30.5634765625 279.536132812 161.234375 279.536132812 237.063476562 c 1
 311.633789062 237.063476562 l 1
 311.633789062 161.234375 314.649414062 30.5634765625 403.649414062 30.5634765625 c 0
 455.798828125 30.5634765625 516.59375 81.1494140625 516.59375 219.5390625 c 0
 516.59375 293.848632812 489.53125 375 386.452148438 375 c 2
 146.671875 375 l 2
 118.53125 375 77.5595703125 302.83984375 77.5595703125 204.450195312 c 0xe4
286 454 m 0
 286 542.790039062 324 592.8046875 400 592.8046875 c 0
 477.197265625 592.8046875 518.756835938 522.2734375 494.53125 428 c 1
 466.53125 435 l 1
 480.037109375 488.126953125 471.547851562 561.953125 401 562.112304688 c 0
 320.323242188 562.293945312 307.790039062 481.309570312 317.53125 405 c 1
 390 405 l 2
 453 405 498.33203125 385.590820312 522.53125 333.563476562 c 0
 542.53125 290.563476562 548.864257812 247.563476562 548.864257812 203 c 0
 548.864257812 97.9033203125 503.874023438 0.5634765625 403.06640625 0.5634765625 c 0
 340.765625 0.5634765625 289.649414062 51 289.584960938 133 c 1
 300 133 l 1
 299.731445312 70.0615234375 256.116210938 0.5634765625 185.103515625 0.5634765625 c 0
 84.2958984375 0.5634765625 45.3056640625 96.9033203125 45.3056640625 202 c 0
 45.3056640625 321.706054688 94.7783203125 374.564453125 94.5205078125 375 c 1
 10 375 l 1
 10 405 l 1
 279.53125 405 l 1
 289.952148438 478.799804688 251.84765625 561.852539062 189 562.618164062 c 0
 152.233398438 563.06640625 125.474609375 527 125.474609375 482 c 0
 125.474609375 450.315429688 139.8203125 405.46484375 154 394 c 1
 119 394 l 1
 101.721679688 427.360351562 94.7646484375 459.142578125 94.7646484375 486 c 0
 94.7646484375 546 139.310546875 593.20703125 188 592.818359375 c 0
 248.116210938 592.338867188 297.401367188 550.013671875 313.53125 454.998046875 c 1
 286 454 l 0
EndSplineSet
EndChar

StartChar: si_La
Encoding: 2 3517 2
Width: 590
VWidth: 0
Flags: HW
LayerCount: 2
Back
SplineSet
130.779296875 174.5703125 m 0
 130.779296875 43.423828125 181.984902507 -95 313.360229022 -95 c 0
 406.486561008 -95 448.438412946 -28.6532165243 470.15234375 29.2333984375 c 1
 567 -5 l 1
 556 -62 494.327801847 -205 313.360229022 -205 c 0
 64.80859375 -205 16.779296875 59.345703125 16.779296875 174.23046875 c 0
 16.779296875 289.65625 57.6728515625 560 306.127856163 560 c 0
 495.888671875 560 573.779296875 424.125 573.779296875 306.983398438 c 0
 572.76171875 151.3671875 492.565429688 86.1064453125 385.683957611 86.1064453125 c 0
 283.18565554 86.1064453125 218.306185734 143.6640625 218.306185734 233.639648438 c 0
 218.306185734 260.26953125 224.85546875 299.662109375 241.174804688 320 c 1
 247 298 l 1
 205.907832262 298 l 1
 205.907832262 393 l 1
 402.215095574 393 l 1
 402.215095574 298 l 1
 340 298 l 1
 365 316.48046875 l 1
 390.650390625 301 l 2
 345.620117188 301 336.090543721 263.319335938 336.090543721 244.678710938 c 0
 336.090543721 223.780273438 351.096103035 195.306640625 386.717153733 195.306640625 c 0
 438.474830985 195.306640625 459.779296875 227.530273438 459.779296875 304.974609375 c 0
 458.803710938 399.57421875 410.113395621 450 305.094660041 450 c 0
 159.753024219 450 130.779296875 288.518554688 130.779296875 174.5703125 c 0
EndSplineSet
Fore
SplineSet
208.024414062 371.244140625 m 1
 399.239257812 371.244140625 l 1
 399.239257812 339 l 1
 208.024414062 339 l 1
 208.024414062 371.244140625 l 1
312.598632812 -158.66796875 m 0
 447.919921875 -158.66796875 497.314453125 -52 497.314453125 38 c 1
 525.205078125 38 l 1
 524.059570312 -53 483.723632812 -187.783203125 313.047851562 -187.783203125 c 0
 108.848632812 -187.783203125 57 56.9208984375 57 172.604492188 c 0
 57 288.194335938 91.06640625 540 304.873046875 540 c 0
 462.16015625 540 535.336914062 436.313476562 535.336914062 307.16015625 c 0
 535.336914062 182 461.798828125 129.884765625 383.969726562 129.884765625 c 0
 316.801757812 129.884765625 257.510742188 164 257.510742188 254.467773438 c 0
 257.510742188 289.2421875 270.92578125 320.053710938 285.83984375 339 c 1
 358.64453125 339 l 1
 325.5546875 339 293.420898438 315 293.420898438 253 c 0
 293.420898438 198 324.989257812 162 382.774414062 162 c 0
 444.087890625 162 506.162109375 201.209960938 506.162109375 305.16015625 c 0
 506.162109375 429 431.158203125 508.884765625 304.873046875 508.884765625 c 0
 140.82421875 508.884765625 89.162109375 326.069335938 89.162109375 172.604492188 c 0
 89.162109375 39.1396484375 143.8359375 -158.66796875 312.598632812 -158.66796875 c 0
EndSplineSet
EndChar

StartChar: si_Dda
Encoding: 3 3498 3
Width: 607
VWidth: 0
Flags: HW
HStem: 0 122<150.584 227.473 362.94 444.147> 307.551 84.4473<5.0146 59.1465 158.183 230.655>
VStem: 31.0146 106.338<134.908 289.206> 247.649 95.9104<140.379 249.5>
LayerCount: 2
Back
SplineSet
179.046875 445.086914062 m 4
 161.221679688 439.428710938 147.655273438 420.435546875 157.49609375 391.998046875 c 5
 230.655273438 391.998046875 l 5
 230.225585938 402.1484375 228.8046875 409.638671875 226.491210938 416.54296875 c 4
 217.362304688 443.784179688 195.985351562 450.463867188 179.046875 445.086914062 c 4
205.706054688 750.219726562 m 5
 205.852539062 750.272460938 l 5
 203.517578125 763.051757812 l 5
 208.930664062 763.682617188 l 6
 298.302734375 774.104492188 382.14453125 740.006835938 441.051757812 685.104492188 c 4
 558.594726562 574.219726562 599.7890625 384.486328125 571.952148438 186.834960938 c 4
 558.346679688 90.2265625 505.474609375 0 404.017578125 0 c 4
 348.096679688 0 308.084960938 33.142578125 293.254882812 79.02734375 c 5
 277.133789062 31.5908203125 233.9375 0 181.2578125 0 c 4
 86.87890625 0 31.0146484375 81.275390625 31.0146484375 186.942382812 c 4
 31.0146484375 228.936523438 43.123046875 276.842773438 59.146484375 305.666992188 c 5
 5.0146484375 305.666992188 l 5
 5.0146484375 391 l 5
 69.0068359375 391 l 5
 66.552734375 405.115234375 66.2568359375 416.875976562 67.6162109375 428.748046875 c 4
 75.3603515625 496.375 139.731445312 533.317382812 203.591796875 526.223632812 c 4
 277.348632812 518.086914062 347.770507812 452.018554688 330.760742188 311.889648438 c 6
 330.227539062 307.55078125 l 5
 171.787109375 307.55078125 l 5
 150.344726562 280.376953125 137.52734375 237.415039062 137.352539062 198.8046875 c 4
 137.153320312 155.053710938 153.045898438 122 187.833984375 122 c 4
 232.71875 122 247.6484375 173.137695312 247.6484375 244.5 c 6
 247.6484375 249.5 l 5
 343.55859375 249.5 l 5
 343.55859375 244.5 l 6
 343.55859375 173.000976562 358.669921875 122 399.892578125 122 c 4
 419.09765625 122 446.7734375 125.715820312 460.815429688 182.271484375 c 4
 480.76953125 264.529296875 476.545898438 372.961914062 447.14453125 464.424804688 c 5
 215.1796875 426.54296875 277.111328125 655.36328125 229.438476562 652.633789062 c 4
 229.149414062 652.609375 228.859375 652.583984375 228.569335938 652.55859375 c 6
 223.815429688 652.029296875 l 5
 223.796875 652.130859375 l 5
 223.790039062 652.129882812 l 5
 222.961914062 656.65625 l 5
 205.706054688 750.219726562 l 5
343.806640625 579.803710938 m 4
 357.771484375 554.173828125 380.084960938 538.764648438 409.641601562 545.771484375 c 5
 397.399414062 565.178710938 380.465820312 586.458007812 364.828125 600.876953125 c 4
 355.108398438 609.837890625 342.818359375 619.052734375 331.8984375 625.185546875 c 5
 331.40625 607.747070312 337.391601562 591.577148438 343.806640625 579.803710938 c 4
EndSplineSet
Fore
SplineSet
119.975585938 383.998046875 m 1
 275.477539062 383.998046875 l 1
 278.510742188 430.854492188 242.8359375 492.75 181 492.776367188 c 0
 105.185546875 492.80859375 104.541992188 422.734375 119.975585938 383.998046875 c 1
270 712 m 1
 312 672 294.067382812 529 400 529 c 0
 480 529 490 562 490 562 c 1
 486 534 l 1
 465.831054688 578.61328125 433.465820312 626.744140625 409.86328125 650.5 c 0
 384.484375 676.04296875 328.116210938 702.654296875 270 712 c 1
490.240234375 518.137695312 m 1
 473.006835938 508.889648438 444.638671875 499.026367188 402 499 c 0
 241.107421875 498.899414062 291 713 212 713 c 1
 212.139648438 714.26953125 l 1
 206.228515625 742.779296875 l 1
 218.8359375 744.673828125 228.661132812 745.529296875 242 745.55078125 c 0
 315.526367188 745.669921875 385.327148438 719.036132812 433.86328125 670.5 c 0
 497.36328125 607 558.248046875 484.34375 558 300 c 0
 557.798828125 150.307617188 527.883789062 0 402.487304688 0 c 0
 341.499023438 0 308.141601562 41.08984375 292.477539062 87.58203125 c 1
 277.885742188 41.3505859375 246.272460938 0 186.487304688 0 c 0
 97.4873046875 0 48.86328125 79.03515625 48.86328125 185 c 0
 48.86328125 253.3515625 72.4921875 316.340820312 91.1708984375 352.666992188 c 1
 34.86328125 352.666992188 l 1
 34.86328125 383 l 1
 87.9375 383 l 1
 59.564453125 465.33984375 112.209960938 525.141601562 179 525.092773438 c 0
 254.481445312 525.0390625 318.377929688 454.676757812 306.487304688 353 c 1
 127.24609375 353 l 1
 103.2734375 318.791992188 80.7841796875 264.014648438 80.9169921875 188 c 0
 81.0556640625 108.651367188 111.12109375 30 183.86328125 30 c 0
 271.86328125 30 273.86328125 167.896484375 273.86328125 238.5 c 1
 305.86328125 238.5 l 1
 305.86328125 168.5 312.86328125 30 404.487304688 30 c 0
 506.8515625 30 525.850585938 210.77734375 525.802734375 300 c 0
 525.755859375 388.471679688 511.43359375 460.759765625 490.240234375 518.137695312 c 1
111.268554688 353 m 2
 110.86328125 353 l 2
 110.657226562 352.7421875 110.815429688 352.759765625 111.268554688 353 c 2
EndSplineSet
EndChar

StartChar: si_Nna
Encoding: 4 3499 4
Width: 879
VWidth: 0
Flags: HMW
HStem: -6.47168 30<189.814 335.122 591.224 723.645> 133.806 30<168.017 290.973> 349.207 30<198.511 270.221> 519 30<504.868 573.356 665.703 748.297> 532.281 30<193.721 327.827>
VStem: 43 32<255.687 414.104> 129.828 32<203.247 307.987> 330.009 32<201.841 310.719> 446.001 32<163.715 380.157> 528.68 32<72.3799 145.627> 608.78 32<249.35 443.686> 802.577 32<122.281 434.025>
LayerCount: 2
Back
SplineSet
188.01171875 257.982421875 m 0
 188.01171875 283.728515625 210.413085938 304.516601562 238.155273438 304.516601562 c 0
 265.8984375 304.516601562 288.299804688 283.728515625 288.299804688 257.982421875 c 0
 288.299804688 232.237304688 265.8984375 211.448242188 238.155273438 211.448242188 c 0
 210.413085938 211.448242188 188.01171875 232.237304688 188.01171875 257.982421875 c 0
  Spiro
    194.833 281.469 o
    212.846 298.185 o
    238.155 304.516 o
    263.463 298.185 o
    281.478 281.469 o
    288.3 257.982 o
    281.478 234.497 o
    263.463 217.78 o
    238.155 211.448 o
    212.846 217.78 o
    194.833 234.497 o
    188.011 257.982 o
    0 0 z
  EndSpiro
574.780273438 248.721679688 m 1
 657.962890625 224.349609375 l 1
 657.962890625 250.688476562 657.670898438 274.077148438 657.670898438 294.546875 c 0
 657.670898438 367.732421875 657.734375 424.645507812 700.575195312 424.645507812 c 0
 741.736328125 424.645507812 742.577148438 372.8671875 742.577148438 252.013671875 c 0
 742.577148438 141.006835938 734.567382812 73.3427734375 656.893554688 73.3427734375 c 0
 595.2265625 73.3427734375 590.31640625 120.818359375 589.69140625 145.626953125 c 1
 497.162109375 145.626953125 l 1
 497.12109375 142.19140625 496.6796875 135.942382812 496.6796875 127.872070312 c 0
 496.6796875 85.6279296875 509.243164062 -6.546875 654.119140625 -6.546875 c 0
 821.771484375 -6.546875 827.864257812 130.478515625 827.864257812 253.451171875 c 0
 827.864257812 411.403320312 825.344726562 510.715820312 707.395507812 510.715820312 c 0
 661.252929688 510.715820312 632.16796875 485.875 615.520507812 462.7734375 c 1
 596.721679688 488.8125 566.802734375 510.526367188 521.623046875 510.526367188 c 0
 426.236328125 510.526367188 397.149414062 411.880859375 396.983398438 411.544921875 c 1
 469.643554688 348.033203125 l 1
 469.643554688 412.3984375 484.39453125 424.645507812 524.142578125 424.645507812 c 0
 573.064453125 424.645507812 574.780273438 374.516601562 574.780273438 248.721679688 c 1
108.513671875 262.522460938 m 0
 108.513671875 195.557617188 162.327148438 136.538085938 234.486328125 136.538085938 c 0
 306.645507812 136.538085938 365.352539062 191.017578125 365.352539062 257.982421875 c 0
 365.352539062 324.947265625 311.537109375 383.966796875 239.377929688 383.966796875 c 0
 167.21875 383.966796875 108.513671875 329.48828125 108.513671875 262.522460938 c 0
  Spiro
    125.106 200.154 o
    169.812 154.286 o
    234.487 136.539 o
    300.427 153.111 o
    347.495 196.789 o
    365.352 257.982 o
    348.76 320.351 o
    304.053 366.219 o
    239.379 383.966 o
    173.438 367.393 o
    126.372 323.716 o
    108.514 262.523 o
    0 0 z
  EndSpiro
174.217773438 146.3046875 m 1
 193.276367188 141.045898438 211.653320312 136.538085938 225.6796875 136.538085938 c 1
 268.486328125 163.778320312 l 1
 268.486328125 210.3125 l 1
 220.788085938 193.288085938 l 2
 212.7265625 193.288085938 197.514648438 218.844726562 179.458984375 227.850585938 c 0
 153.57421875 240.762695312 126.61328125 264.44921875 126.61328125 325.325195312 c 0
 126.61328125 428.318359375 194.05078125 462.28125 252.586914062 462.28125 c 0
 264.80078125 462.28125 282.834960938 461.233398438 302.161132812 451.541015625 c 1
 215.396484375 331.388671875 l 1
 282.702148438 294.196289062 l 1
 369.756835938 406.044921875 l 1
 395.2421875 389.649414062 416.000976562 340.465820312 416.000976562 272.366210938 c 0
 416.000976562 117.462890625 324.040039062 75.162109375 261.7265625 75.162109375 c 0
 219.004882812 75.162109375 186.782226562 82.93359375 145.109375 106.921875 c 1
 174.217773438 146.3046875 l 1
12.0234375 61.4482421875 m 1
 78.9150390625 20.7685546875 l 1
 84.052734375 27.3984375 102.103515625 34.0185546875 111.571289062 34.0185546875 c 0
 133.994140625 34.0185546875 188.205078125 -6.4716796875 261.7265625 -6.4716796875 c 0
 398.348632812 -6.4716796875 493.084960938 89.349609375 493.084960938 272.366210938 c 0
 493.084960938 367.147460938 456.573242188 437.342773438 419.388671875 476.939453125 c 1
 517.986328125 617.776367188 l 1
 446.153320312 661.001953125 l 1
 350.150390625 523.873046875 l 1
 317.407226562 537.131835938 283.010742188 541.73046875 252.586914062 541.73046875 c 0
 152.127929688 541.73046875 41 477.706054688 41 331 c 0
 41 266.626953125 66.1416015625 213.330078125 100.84375 183.119140625 c 1
 12.0234375 61.4482421875 l 1
EndSplineSet
Fore
SplineSet
162.139648438 257.71875 m 0xe7f0
 162.139648438 310.209960938 196.998046875 349.20703125 245.073242188 349.20703125 c 0
 303.150390625 349.20703125 330.008789062 302.209960938 330.008789062 257.71875 c 0
 330.008789062 203.23046875 297.077148438 164 244 164 c 0
 190.924804688 164 162.139648438 203.23046875 162.139648438 257.71875 c 0xe7f0
608.780273438 248.721679688 m 1
 641 249.349609375 l 1
 641 370 l 1
 641 427 640.994140625 519 712.575195312 519 c 0xf7f0
 803.736328125 519 802.577148438 372.8671875 802.577148438 252.013671875 c 0
 802.577148438 141.006835938 802.567382812 24.3427734375 669.893554688 24.3427734375 c 0
 613.2265625 24.3427734375 561.31640625 40.818359375 560.69140625 145.626953125 c 1
 529.162109375 145.626953125 l 1
 528.419271709 83.4054553302 543.55687194 -6.546875 668.119140625 -6.546875 c 0
 835.771484375 -6.546875 834.864257812 130.478515625 834.864257812 253.451171875 c 0
 834.864257812 411.403320312 829.344726562 548.715820312 711.395507812 548.715820312 c 0
 661.252929688 548.715820312 631 511.2265625 616.520507812 469 c 1
 629 469 l 1
 615.787109375 507.435546875 586.004882812 548.526367188 534.623046875 548.526367188 c 0
 429.236328125 548.526367188 426.166015625 424.3359375 426 424 c 1
 452 383 l 1
 452 383 436.39453125 519 534.142578125 519 c 0
 595.375976562 519 608.559608303 426.999911142 608.631398097 369.000003432 c 2
 608.780273438 248.721679688 l 1
129.828125 258.610351562 m 0
 129.828125 192.272460938 168.016601562 133.805664062 242.634765625 133.805664062 c 0
 307.250976562 133.805664062 361.823242188 189.775390625 361.823242188 256.112304688 c 0
 361.823242188 322.450195312 311.631835938 378.916992188 247.014648438 378.916992188 c 0
 182.397460938 378.916992188 129.828125 324.948242188 129.828125 258.610351562 c 0
166.217773438 149.3046875 m 1
 185.276367188 144.045898438 200.955078125 133.805664062 242.634765625 133.805664062 c 1
 270 149 l 1
 222 158 l 0
 214.849609375 155.448242188 194.189254765 160.433271065 177 171 c 0
 151.115234375 186.912109375 75 219.674804688 75 334 c 0
 75 476.674804688 196.05078125 532.28125 254.586914062 532.28125 c 0xeff0
 330.893554688 532.28125 352.286132812 500.111328125 366 496 c 1
 375.158203125 493.25390625 367 512 367 512 c 1
 268 359 l 1
 297 347 l 1
 391 488 l 1
 371 488 l 1
 397.375976562 465.780273438 446.000976562 412.4140625 446.000976562 272.366210938 c 0
 446.000976562 117.462890625 378.040039062 24.162109375 263.7265625 24.162109375 c 0
 181.004882812 24.162109375 154 76 107 67 c 1
 166.217773438 149.3046875 l 1
51 39 m 1
 77.9150390625 22.7685546875 l 1
 83.052734375 29.3984375 99 37.0185546875 114.571289062 37.0185546875 c 0
 140 37.0185546875 179.205078125 -6.4716796875 263.7265625 -6.4716796875 c 0
 400.348632812 -6.4716796875 478.084960938 89.349609375 478.084960938 272.366210938 c 0
 478.084960938 363.325195312 449 466 391 510 c 1
 389.504882812 511.696289062 393.5 488.403320312 392 490 c 1
 535 712 l 1
 510 727 l 1
 368 513 l 1
 368 513 388.458984375 514.951171875 382 517 c 1
 382 517 340.877929688 562 254 562 c 0
 153.541015625 562 43 477.706054688 43 331 c 0
 43 231.155979268 111 167 145 158 c 1
 149.556847696 154.87680027 132.433142956 166.528653019 136 165 c 1
 51 39 l 1
EndSplineSet
Colour: ff0000
EndChar

StartChar: si_A
Encoding: 5 3461 5
Width: 548
VWidth: 0
Flags: HMW
HStem: -1.16211 30<199.755 357.988> 394.06 20<155.697 316.257> 566.062 30<172.58 274.201 417.662 466>
VStem: 43.2549 32<157.085 304.027> 101.468 32<405.627 526.125> 347.306 32<331.227 374 464.185 501.014> 452.338 32<422.441 562.287> 465.587 32<408.251 517.788>
LayerCount: 2
Back
SplineSet
340 537.184570312 m 1
 311.775390625 580.296875 267.478515625 598 225.124023438 598 c 0
 125.021484375 598 67.9521484375 490.021484375 122.719726562 396 c 1
 195.420898438 419.8984375 l 1
 146.000976562 521.586914062 301.92578125 547.270507812 281.930664062 420 c 1
 257.5078125 426.154296875 231.333984375 424.443359375 205.024414062 423.649414062 c 0
 83.2998046875 419.977539062 23.2548828125 327.4609375 23.2548828125 229.708007812 c 0
 23.2548828125 117.709960938 102.076171875 -1.162109375 257.260742188 -1.162109375 c 0
 266.032226562 -1.162109375 275.046875 -0.7822265625 284.305664062 0 c 1
 284.305664062 -206.34765625 l 1
 377.305664062 -206.34765625 l 1
 377.305664062 19.76171875 l 1
 438.384765625 41.1796875 491.770507812 78.5126953125 523 129.983398438 c 2
 526.604492188 135.923828125 l 1
 450.262695312 214.727539062 l 1
 445 202.119140625 l 2
 434.268554688 176.409179688 409.337890625 154.59375 377.305664062 138.870117188 c 1
 377.305664062 248.44140625 l 1
 377.305664062 263.65234375 l 2
 377.305664062 284.041992188 377.345703125 308.26171875 377.397460938 331.2265625 c 0
 377.99609375 407.255859375 382.490234375 457.661132812 416.166015625 488.08984375 c 1
 424.782226562 453.7578125 434.424804688 437.017578125 391.3984375 385.516601562 c 2
 386.025390625 379.083984375 l 1
 451.057617188 316.390625 l 1
 457.28515625 321.92578125 l 2
 572.302734375 424.163085938 464.438476562 500.6484375 517.235351562 535.216796875 c 2
 525.064453125 540.341796875 l 1
 518.908203125 548.990234375 474.13671875 612.45703125 473.859375 612.272460938 c 1
 399.305664062 612.272460938 342.465820312 539.82421875 340 537.184570312 c 1
284.305664062 113.3046875 m 1
 277.041015625 112.60546875 270.041015625 112.268554688 263.303710938 112.268554688 c 0
 173.856445312 112.268554688 130.802734375 171.604492188 130.802734375 229.169921875 c 0
 130.802734375 283.400390625 169.012695312 336.059570312 242.638671875 336.059570312 c 0
 255.458984375 336.059570312 269.352539062 334.462890625 284.305664062 331 c 1
 284.305664062 267.495117188 284.305664062 176.809570312 284.305664062 113.3046875 c 1
EndSplineSet
Fore
SplineSet
351 464.184570312 m 1xfd
 370 457 l 1
 370 457 345.905273438 592 230.124023438 592 c 0
 156.176757812 592 115.139453524 542.993163197 115.467773438 469 c 0
 115.6953125 417.719726562 148.719726562 377 148.719726562 377 c 1
 177 391 l 1
 177 391 147.772181309 419.169921435 147.692382812 470 c 0
 147.642578125 501.724609375 153.610350379 560.27300873 230 560.0625 c 0
 316.467773438 559.82421875 349.233398438 452.2109375 345.930664062 389 c 1
 341.772460938 390.047851562 368.694335938 386.365234375 363 387 c 1
 363 387 326.83398446 424.201130775 230 424 c 0
 108.227539062 423.747070312 43.2548828125 327.4609375 43.2548828125 229.708007812 c 0
 43.2548828125 117.709960938 121.076171875 -1.162109375 287.260742188 -1.162109375 c 0
 336.032226562 -1.162109375 351.741210938 6.2177734375 361 7 c 1
 345 14 l 1
 345 -206.34765625 l 1
 379.3 -206.34765625 l 1
 379.299804688 23 l 1
 365.305664062 7.76171875 l 1
 458.012635055 37.7952913562 500.241536549 88.7638359081 525 135 c 5
 502.658203125 152.803710938 l 5
 476.085696942 105.064495991 430.840709292 56.2156127543 363 38 c 1
 379 28 l 1
 379.3 331.2265625 l 1
 379.898632813 457.255859375 377 568 466 569 c 1
 466 569 452.337890625 555 452.337890625 519 c 0xfe
 452.337890625 493 465.586914062 476.513671875 465.586914062 453 c 0
 465.586914062 428.473590713 447.94140625 399 421.025390625 372.083984375 c 1
 441.057617188 352.390625 l 1
 476.666992188 388 496.898649337 418.534179891 496.908203125 453 c 0
 496.916992188 484.70703125 483.642578125 496 483.642578125 522 c 0
 483.642578125 540 483.792545024 553.726233234 495.235351562 561.216796875 c 2
 503.064453125 566.341796875 l 1
 496.908203125 574.990234375 479.13671875 600.45703125 478.859375 600.272460938 c 1
 381 600.272460938 351.465820312 521.724609375 351 464.184570312 c 1xfd
358.305664062 37.3046875 m 1
 351.041015625 36.60546875 328.041015625 29.2685546875 287.303710938 29.2685546875 c 0
 117.856445312 29.2685546875 74.25 166.434570312 74.25 228 c 0
 74.25 332.23046875 141.006806319 393.972058767 232.638671875 394.059570312 c 0
 322.232430066 394.145135395 358 353 356 356 c 1
 368.278320312 353.360351562 347.305664062 374 347.305664062 374 c 1
 345 22 l 1
 358.305664062 37.3046875 l 1
EndSplineSet
EndChar

StartChar: ta_Pa
Encoding: 6 2986 6
Width: 546
VWidth: 0
Flags: HW
HStem: 0 35<85 502>
VStem: 81 32<35 520> 469 33<0 520>
LayerCount: 2
Back
SplineSet
418 520 m 1
 528 520 l 1
 528 0 l 1
 418 0 l 1
 418 520 l 1
58 0 m 5
 58 122 l 5
 528 122 l 1
 528 0 l 1
 58 0 l 5
54 520 m 5
 164 520 l 5
 164 0 l 5
 54 0 l 5
 54 520 l 5
EndSplineSet
Fore
SplineSet
469 520 m 1
 502 520 l 1
 502 0 l 1
 469 0 l 1
 469 520 l 1
85 0 m 1
 85 35 l 1
 502 35 l 1
 502 0 l 1
 85 0 l 1
81 520 m 1
 113 520 l 1
 113 0 l 1
 81 0 l 1
 81 520 l 1
EndSplineSet
Colour: ff0000
EndChar

StartChar: ta_Ma
Encoding: 7 2990 7
Width: 684
VWidth: 0
Flags: HMW
HStem: 1 122<130.19 259 363 521.032> 451.179 92.9785<399.344 512.959>
VStem: 27.4102 110<96 520.405> 259 110<96 408.771> 547 110<136.707 405.444>
LayerCount: 2
Back
SplineSet
574 2 m 2
 575.243164062 1 l 1
 35.9052734375 1 l 6
 33.41015625 1 l 5
 33.41015625 520.405273438 l 5
 143.400390625 520.405273438 l 5
 143.400390625 123 l 5
 256 123 l 1
 256 313.172851562 l 0
 256.078125 493.520507812 342.094726562 543.271484375 454.370117188 544.157226562 c 0
 591.953125 545.2421875 658.262695312 446.747070312 657 284.4296875 c 0
 656.021484375 158.600585938 597 47 574 2 c 2
510.032226562 123 m 1
 510.032226562 123 547.856445312 174.643554688 547.317382812 290.66796875 c 0
 547.03125 352.321289062 542.81640625 451.198242188 458.112304688 451.178710938 c 0
 375.055664062 451.159179688 366.766601562 382.10546875 366 270.272460938 c 0
 366 123 l 1
 510.032226562 123 l 1
EndSplineSet
Fore
SplineSet
544 2 m 2
 545.243164062 1 l 1
 59.9052734375 1 l 2
 57.41015625 1 l 1
 57.41015625 517.405273438 l 1
 93.400390625 517.405273438 l 1
 93.400390625 34 l 1
 296 34 l 1
 296 313.172851562 l 0
 296.078125 493.520507812 402.087890625 524.409179688 454.370117188 524.157226562 c 0
 592.9375 523.48828125 632.262695312 376.747070312 631 284.4296875 c 0
 629.279296875 158.608398438 567 47 544 2 c 2
522.032226562 34 m 1
 522.032226562 34 597.643554688 168.642578125 597.317382812 284.66796875 c 0
 597.03125 386.321289062 550.81640625 490.198242188 456.112304688 490.178710938 c 0
 373.055664062 490.161132812 330.766601562 422.10546875 330 312.272460938 c 0
 330 34 l 1
 522.032226562 34 l 1
EndSplineSet
Colour: ff0000
EndChar

StartChar: ta_Va
Encoding: 8 2997 8
Width: 747
VWidth: 0
Flags: HMW
HStem: 1 122<155.38 237.903 471.33 631.973> 194.393 100<156.582 236.674> 449.179 100<231.932 364.931>
VStem: 244.15 105<103.042 186.716> 422.205 105<160.845 383.417> 631.973 110<95.7695 520.405>
LayerCount: 2
Back
SplineSet
156.452148438 144.654296875 m 0
 156.452148438 113.446289062 177.650390625 96.9091796875 201.794921875 96.9091796875 c 0
 229.421875 96.9091796875 244.6328125 117.181640625 244.6328125 144.654296875 c 0
 244.6328125 168.874023438 228.681640625 189.83984375 201.794921875 189.83984375 c 0
 175.82421875 189.83984375 156.452148438 169.345703125 156.452148438 144.654296875 c 0
626.97265625 520.405273438 m 1
 737.752929688 520.405273438 l 1
 737.752929688 1 l 1
 735.2578125 1 l 2
 372.919921875 1 l 1
 372.590820312 118 l 2
 372.590820312 118 423.743164062 188.643554688 423.205078125 286.66796875 c 0
 422.866210938 348.321289062 396.704101562 440.197265625 296 440.178710938 c 0
 204.045898438 440.162109375 136.668945312 322.213867188 147.392578125 238 c 1
 110.102539062 241.272460938 l 1
 127.671875 266 171.344726562 284.04296875 207.06640625 283.963867188 c 0
 275.818359375 283.8125 336.228515625 225.676757812 335.752929688 141.264648438 c 0
 335.26953125 55.4482421875 288.021484375 -4.990234375 197.5078125 -4.990234375 c 0
 62.509765625 -4.990234375 24.9423828125 166.799804688 45.025390625 288.172851562 c 0
 73.7177734375 461.575195312 182.982421875 543.3203125 295.2578125 544.157226562 c 0
 440.840820312 545.2421875 529.325195312 451.748046875 528.262695312 284.4296875 c 4
 527.596679688 179.552734375 489.638671875 118.979492188 489.330078125 120.76953125 c 1
 626.97265625 120.76953125 l 1
 626.97265625 520.405273438 l 1
EndSplineSet
Fore
SplineSet
103.176757812 118.171875 m 0
 103.176757812 68.171875 144.176757812 27.171875 194.176757812 27.171875 c 0
 244.176757812 27.171875 285.176757812 68.171875 285.176757812 118.171875 c 0
 285.176757812 168.171875 244.176757812 209.171875 194.176757812 209.171875 c 0
 144.176757812 209.171875 103.176757812 168.171875 103.176757812 118.171875 c 0
71.1767578125 118.171875 m 0
 71.1767578125 186.171875 126.176757812 241.171875 194.176757812 241.171875 c 0
 262.176757812 241.171875 317.176757812 186.171875 317.176757812 118.171875 c 0
 317.176757812 50.171875 262.176757812 -4.828125 194.176757812 -4.828125 c 0
 126.176757812 -4.828125 71.1767578125 50.171875 71.1767578125 118.171875 c 0
202.5078125 -4.990234375 m 1049
202.5078125 -4.990234375 m 1
 202.5078125 -4.990234375 l 0
 85.2463626375 -4.990234375 39.8464583946 115.531270021 39.9941167832 225.999997074 c 0
 40.2671036787 430.231637011 160.098630317 533.170238228 285.2578125 534.157226562 c 0
 422.840820312 535.2421875 507.095081232 451.749021674 506.262695312 284.4296875 c 0
 505.596679688 147.816756536 436.638671875 32.9429100343 436.330078125 34.76953125 c 5
 665.97265625 34.76953125 l 5
 665.97265625 520.405273438 l 1
 701.752929688 520.405273438 l 1
 701.752929688 1 l 1
 699.2578125 1 l 2
 392.919921875 1 l 1
 392.590820312 33 l 6
 392.590820312 33 471.453905443 156.068348291 471.205078125 286.66796875 c 0
 470.9453125 420.321289062 403.70410145 499.19331818 286 499.178710938 c 0
 175.833007812 499.165039062 74.755946535 404.657226421 74.7666015625 218 c 0
 74.7701367888 156.069091798 94 123 94 123 c 1
 105 82 l 1
 105 45.4409098086 148.289653998 27.171875 201.176757812 27.171875 c 0
 259.815429688 27.171875 192 32 202.5078125 -4.990234375 c 1
EndSplineSet
Colour: ff0000
EndChar

StartChar: ta_O
Encoding: 9 -1 9
Width: 554
VWidth: 0
Flags: HMW
HStem: -253.984 27.209<176.356 316.845> 119 54.1201<108.739 209.261> 310.88 54.1201<108.739 209.261> 502.437 34.792<188.457 347.107>
VStem: 250 32<191.739 292.261> 289.237 26.6348<-44.9689 67> 482.689 32.0215<156.306 344.005>
LayerCount: 2
Back
SplineSet
131 300.896484375 m 0
 105.080078125 300.377929688 92.78125 279.14453125 92.8505859375 256 c 0
 92.927734375 230.086914062 111.615234375 213.436523438 131 213.274414062 c 0
 155.5390625 213.069335938 172.564453125 228.713867188 172.391601562 255 c 0
 172.197265625 284.607421875 155.177734375 301.379882812 131 300.896484375 c 0
372 25 m 1
 388 -10 435.485351562 -32.0283203125 509 -32.724609375 c 0
 509 -125.291015625 l 1
 402.072265625 -125.291015625 421 -223.984375 244.9296875 -223.984375 c 0
 96.404296875 -223.984375 49 -101 49 -101 c 1
 127.755859375 -47 l 1
 137.100585938 -65.68359375 173.108398438 -127.444335938 247.251953125 -127.775390625 c 0
 348.38671875 -128.2265625 347.767578125 -56.873046875 418.755859375 -43.7607421875 c 1
 419.844726562 -42.2412109375 400.84765625 -96.6552734375 401.755859375 -95 c 1
 333 -95 240.081054688 -47.3115234375 240.755859375 72 c 0
 240.931640625 103.001953125 247.755859375 137 247.755859375 137 c 1
 336.755859375 137 l 1
 330 93 341 56 347 49 c 1
 283 73 l 1
 322 69 422.951171875 119.705078125 424.69140625 260 c 0
 426.21875 383.123046875 361.325195312 467.423828125 252.622070312 467.436523438 c 0
 183.532226562 467.444335938 118.618164062 421.903320312 107.749023438 376.283203125 c 1
 110.887695312 376.58203125 83.970703125 384.825195312 87 385.013671875 c 1
 109.600585938 393.337890625 130.295898438 397.045898438 149 396.983398438 c 0
 229.45703125 396.71484375 273.056640625 326.684570312 272.8515625 254.264648438 c 0
 272.59765625 164.954101562 207.431640625 109.737304688 130.166992188 110.7265625 c 0
 36.6572265625 111.923828125 -13.90625 181.09765625 -14.0009765625 280.68359375 c 0
 -14.1572265625 445.5703125 96.513671875 566.885742188 247.622070312 567.228515625 c 0
 425.73828125 567.6328125 529.490234375 424.307617188 529.7109375 262 c 0
 529.967773438 73.2724609375 399.354492188 -1.01171875 354 -17 c 1
 372 25 l 1
EndSplineSet
Fore
SplineSet
68 242 m 0
 68 192 109 151 159 151 c 0
 209 151 250 192 250 242 c 0
 250 292 209 333 159 333 c 0
 109 333 68 292 68 242 c 0
36 242 m 0
 36 310 91 365 159 365 c 0
 227 365 282 310 282 242 c 0
 282 174 227 119 159 119 c 0
 91 119 36 174 36 242 c 0
50 185 m 1
 -6 278 40.400390625 527 266 527 c 4
 454 527 515 377 515 232 c 4
 515 64.310546875 401 -37 331 -71 c 1
 329.758789062 -74.7841796875 333.91796875 -52.84765625 333 -56 c 1
 369.942382812 -85.76953125 432.452148438 -106.40625 489 -112 c 1
 490 -166 l 1
 396 -178.571289062 403 -261 245 -261 c 0
 151.1171875 -261 108.200195312 -194.698242188 93 -166 c 1
 116 -147 l 1
 133.142578125 -174.651367188 164.857421875 -229 248 -229 c 0
 368.911132812 -229 389 -145.66015625 473 -135 c 1
 463 -144 l 1
 400.333007812 -128.870117188 275 -110.571289062 275 12 c 0
 275 34 283 57 283 57 c 1
 314 57 l 1
 307.846679688 41.953125 305.340820312 26.5361328125 305.31640625 12 c 0
 305.263671875 -19.287109375 316.985351562 -42 329 -51 c 1
 308 -35 l 1
 386.314453125 -10.1875 480.744140625 105.942382812 483 230 c 0
 485 340.839694656 438 494 266 494 c 4
 81.845703125 494 30 285.552447552 76 206 c 1
 50 185 l 1
EndSplineSet
Colour: ff0000
EndChar

StartChar: uni0D82
Encoding: 10 -1 10
Width: 419
VWidth: 0
Flags: HMW
HStem: -210.675 30<233.436 341.79> 14.7363 30<229.928 329.009> 373.958 30<161.362 319.186> 554.079 30<178.851 268.528>
VStem: 29.6504 32<139.671 296.88> 116.753 32<410.802 522.361> 146.64 32<-125.851 -11.178> 320.991 32<396.884 488.73>
LayerCount: 2
Back
SplineSet
118.198242188 224.068359375 m 5
 118.19921875 278.298828125 154 330.958007812 230.03515625 330.958007812 c 4
 243 330.958007812 258.298828125 329.1015625 273 326 c 5
 297.779296875 320.39453125 317 316 348 307 c 5
 352.241210938 334.5703125 359 383.110351562 359 416 c 4
 359 546.099609375 284.07421875 594 214.404296875 594 c 4
 114.301757812 594 57.232421875 486.021484375 112 392 c 5
 184.701171875 415.8984375 l 5
 135.28125 517.586914062 291.206054688 543.270507812 271.2109375 416 c 5
 246 419 218.729492188 419.341796875 192.419921875 418.547851562 c 4
 70.6962890625 414.875976562 10.650390625 322.359375 10.650390625 224.606445312 c 5
 10.650390625 111.8984375 89.3955078125 -5.1025390625 244.65625 -6.263671875 c 4
 286.626953125 -6.5771484375 323.401367188 4.03515625 356 17.8662109375 c 4
 322 122 l 4
 300.369140625 111.55078125 275.276367188 107.2421875 250.69921875 107.166992188 c 4
 162.395507812 106.8984375 118.395507812 165.8984375 118.198242188 224.068359375 c 5
169 4.8984375 m 5
 76 -143.1015625 294 -328.1015625 438 -112.1015625 c 5
 361 -60.1015625 l 5
 291.860351562 -190.5390625 178 -45.1015625 277 -5.1015625 c 5
 246 38.8984375 l 5
 169 4.8984375 l 5
EndSplineSet
Fore
SplineSet
62.1982421875 224.068359375 m 1xfd
 62.19921875 338.298828125 151 373.958007812 227.03515625 373.958007812 c 0
 283.665039062 373.958007812 343 355 343 355 c 1
 343 355 353 389.110351562 353 417 c 0
 353 528.099609375 293.07421875 584 224.404296875 584 c 0
 150.319335938 584 116.352539062 521.865234375 116.752929688 473 c 0
 117.221679688 415.819335938 145 382 145 382 c 1
 168.701171875 396.8984375 l 1
 168.701171875 396.8984375 149.235351562 434.407226562 148.98828125 473 c 0
 148.78515625 504.79296875 164.80078125 554.075195312 224 554.079101562 c 0
 299.25 554.083984375 321.203125 462.204101562 320.991210938 417 c 0
 320.9609375 410.524414062 320.393554688 399.530273438 319.2109375 392 c 1
 319.2109375 392 278.721679688 403.905273438 228 403.915039062 c 0
 97.840820787 403.940099071 29.650390625 331.239257812 29.650390625 224.606445312 c 0
 29.650390625 111.8984375 89.3931524777 15.5217208935 244.65625 14.736328125 c 0
 306.626953125 14.4228515625 356 38.8662109375 356 38.8662109375 c 0
 346 66 l 0
 324.369140625 55.55078125 281.576985902 45.1720667508 248 45 c 0
 209.696289062 44.8037109375 62.3955078125 53.8984375 62.1982421875 224.068359375 c 1xfd
183 25.8984375 m 1
 183 25.8984375 146.85546875 -4.6611328125 146.639648438 -69 c 0xfb
 146.387978996 -144.025962931 198.692382812 -210.221679688 285 -210.674804688 c 0
 344.827148438 -210.98828125 390.448242188 -183.4296875 438 -112.1015625 c 1
 414 -95.1015625 l 1
 393.3671875 -134.026367188 355.751953125 -180.33984375 284 -180.306640625 c 0
 213.224609375 -180.2734375 178.9765625 -119.196289062 179 -70 c 0
 179.028320312 -9.6806640625 214 20 214 20 c 1
 204 27 l 1
 183 25.8984375 l 1
EndSplineSet
Colour: ff0000
EndChar

StartChar: ta_E
Encoding: 11 -1 11
Width: 717
VWidth: 0
Flags: HMW
HStem: -19 30<122.61 263.645 449.591 582.308> 309.193 30<205.256 480.794> 430.663 30<313.671 405.046> 616.748 30<313.336 404.589> 770 30<274.155 458.191>
VStem: 26.1865 32<73.8324 203.509> 83.585 32<403.206 610.09> 250.222 32<489.187 584.706> 435.277 32<489.644 543.516> 485.668 32<309.007 490.938> 632.844 32<66.7141 196.259 360.996 557.159>
LayerCount: 2
Back
SplineSet
352.51953125 592.763671875 m 0
 327.973632812 592.067382812 308.080078125 572.40234375 308.15234375 545.83984375 c 0
 308.237304688 514.577148438 336.409179688 502.720703125 353.639648438 502.467773438 c 0
 373.282226562 502.177734375 397.501953125 516.399414062 397.278320312 545.83984375 c 0
 397.060546875 574.520507812 375.1171875 593.405273438 352.51953125 592.763671875 c 0
222.228515625 542.48046875 m 0
 221.057617188 604.8515625 263.522460938 682.174804688 359.169921875 683.166015625 c 0
 485.241210938 684.47265625 560.530273438 548.228515625 561.098632812 387 c 0
 561.1953125 359.403320312 559.103515625 331.07421875 554.702148438 302.577148438 c 1
 511.766601562 349.719726562 l 1
 653.3203125 328.739257812 718.322265625 222.099609375 719.487304688 142.490234375 c 0
 721.344726562 15.572265625 628.90625 -47.4931640625 520.268554688 -47.779296875 c 0
 425.266601562 -48.029296875 346.041015625 9.46875 322.280273438 35.9599609375 c 1
 389.040039062 31.7666015625 l 1
 346.068359375 -6.7998046875 283.2890625 -50.5478515625 189.232421875 -49.9365234375 c 0
 78.6640625 -49.2177734375 -12.244140625 5.451171875 -11.8134765625 131.302734375 c 0
 -11.4287109375 243.930664062 66.873046875 303.749023438 113.3203125 322.661132812 c 1xf6
 122.500976562 246.080078125 l 1
 90.080078125 294.944335938 43.70703125 401.64453125 43.5849609375 517.799804688 c 0
 43.384765625 709.353515625 154.77734375 859.715820312 371.348632812 859.663085938 c 0
 657.150390625 859.59375 725.309570312 586.61328125 722.559570312 338.639648438 c 1
 615.172851562 340.879882812 l 1
 615.8671875 354.692382812 616.236328125 368.4140625 616.270507812 382 c 0
 616.752929688 578.389648438 546.958007812 746.279296875 371.348632812 748.295898438 c 0
 237.490234375 749.833007812 152.176757812 670.786132812 151.891601562 515.639648438 c 0xee
 151.672851562 396.815429688 210.372070312 309.043945312 220.040039062 296.6796875 c 1
 141.759765625 334.280273438 l 1
 189.9609375 354.125976562 259.067382812 370.825195312 350.360351562 370.780273438 c 0
 431.408203125 370.740234375 490.83984375 358.58203125 532.280273438 343.958007812 c 1
 437.3203125 323.639648438 l 1
 446.463867188 348.08984375 450.314453125 373.426757812 450.41796875 398 c 0
 450.640625 450.75390625 433.596679688 499.9921875 414.590820312 529.400390625 c 1
 463.400390625 550.3203125 l 1
 472.624023438 483.109375 446.25 412.61328125 350.280273438 412.663085938 c 0
 285.120117188 412.696289062 223.815429688 457.879882812 222.228515625 542.48046875 c 0
399.155273438 45.48828125 m 1
 420.080078125 103.859375 l 1
 431.625 98.0732421875 478.912109375 70.01953125 523.879882812 70.0263671875 c 0
 576.271484375 70.0341796875 604.807617188 98.068359375 604.84375 147.6015625 c 0
 604.89453125 216.834960938 498.899414062 243.572265625 497.868164062 243.905273438 c 1
 509.3046875 257.012695312 544.563476562 274.2578125 543.364257812 271.200195312 c 1
 527.317382812 152.37109375 438.939453125 63.3154296875 399.155273438 45.48828125 c 1
285 111.40625 m 1
 295.052734375 55.7197265625 l 1
 233.484375 84.201171875 162.202148438 174.237304688 134.595703125 237.360351562 c 1
 133.076171875 240.130859375 181.7734375 215.661132812 180.287109375 218.513671875 c 1
 154.59765625 211.629882812 107.033203125 180.037109375 106.97265625 131.6796875 c 0xf6
 106.918945312 88.5556640625 139.080078125 63.4609375 190.599609375 63.216796875 c 0
 245.327148438 62.95703125 285 111.40625 285 111.40625 c 1
387.861328125 120.888671875 m 1
 313.973632812 116.440429688 l 1
 353.028320312 137.153320312 410.3203125 206.240234375 428.5703125 290.240234375 c 1
 430.440429688 294.551757812 465 250 474.786132812 236.510742188 c 1
 447.216796875 250.75 416.647460938 257.19140625 370.280273438 257.193359375 c 0
 325.760742188 257.197265625 271.641601562 252.279296875 237.711914062 234.724609375 c 1
 238.849609375 232.44921875 231.75 284.087890625 232.895507812 281.879882812 c 1
 255.770507812 226.22265625 328.674804688 150.265625 387.861328125 120.888671875 c 1
EndSplineSet
Fore
SplineSet
449 445 m 1
 384 555 l 1
 473.157226562 521.619140625 519.08228967 400.269531085 519.006835938 282 c 0
 518.954101562 199.341796875 508.236328125 187.412109375 508.236328125 187.412109375 c 1
 507 211 l 1
 634.54429526 181.057925301 675.491638805 114.442539134 675.516601562 36 c 0
 675.550004795 -68.9657436807 620.808083072 -128.815822785 511.163085938 -129 c 0
 414.07421875 -129.163085938 344.973632812 -60 344.973632812 -60 c 1
 368 -60 l 1
 326.35546875 -90.2802734375 282.332032031 -129.551626464 189.4921875 -129 c 0
 91.53515625 -128.41796875 25.8470636653 -82.5283214398 26.1865234375 33.166015625 c 0
 26.515625 145.330078125 126.139648438 190.469726562 155.646484375 203.061523438 c 1
 151 172 l 1
 126.728515625 233.265639442 83.6712960156 280.416347569 83.5849609375 411.841796875 c 0
 83.4750963132 579.08560929 178.344558609 710.719188854 348.336914062 710.663085938 c 0
 582.787101425 710.585709874 695.709153491 479.545875909 622.178710938 220.524414062 c 1
 590.415039062 228.99609375 l 1
 657.214173036 452.485346674 563.015778656 676.970459255 348 677 c 0
 226.237460024 677.016685609 118.26010021 591.869954458 118 411 c 0
 117.845703125 303.704166667 167 214.733333333 184 187 c 1
 165 205 l 1
 165 205 229.072265565 229.799469345 338 229.780273438 c 0
 432.206054688 229.763671875 497 213 497 213 c 1
 476 199 l 1
 476 199 487.675954 208.498046692 487.66796875 277 c 0
 487.661789784 330.006633255 473.503719198 393.966244103 449 445 c 1
244 442 m 0
 244 392 285 351 335 351 c 0
 385 351 426 392 426 442 c 0
 426 492 385 533 335 533 c 0
 285 533 244 492 244 442 c 0
212 442 m 0
 212 510 267 565 335 565 c 0
 403 565 458 510 458 442 c 0
 458 374 403 319 335 319 c 0
 267 319 212 374 212 442 c 0
339 -35 m 1
 395.82962963 15 446.323603878 93.2470703125 476 192 c 1
 482 180 l 1
 458.767776076 186.953125 406.434583509 197.193359375 340 197.193359375 c 0
 239.742383658 197.193359375 169 169 169 169 c 1
 175.082494189 167.945694891 180.676994578 183.063594141 187 182 c 1
 232 99 306.701171875 9.5107421875 367 -34 c 1
 339 -35 l 1
57.97265625 31.73828125 m 0
 57.8916015625 -55.630859375 116.542970301 -98.6783546447 190.41015625 -99 c 0
 250.06640625 -99.259765625 297 -68.982421875 331 -40 c 1
 330 -53 l 1
 268.456054688 -6.599609375 194.134765625 90.5908203125 156 164 c 1
 155.2109375 169 164.794921875 169 164 169 c 1
 120.3515625 150.553710938 58.0437134138 108.331054903 57.97265625 31.73828125 c 0
377 -53 m 1
 377 -41 l 1
 401.303741766 -61.8679956897 450.977700876 -97.0069663242 512.885742188 -97 c 0
 601.413695001 -96.9902699626 641.780382022 -45.1795128375 641.84375 37.572265625 c 0
 641.895743216 105.676402052 593.762561311 156.219954763 494 178.40234375 c 1
 508.328125 181.279296875 l 1
 480.658203125 83.853515625 430.909179688 4.21875 377 -53 c 1
EndSplineSet
EndChar

StartChar: si_Dda.rakar
Encoding: 12 -1 12
Width: 607
VWidth: 0
Flags: HW
HStem: 0 122<150.584 227.473 362.94 444.147> 307.551 84.4473<5.0146 59.1465 158.183 230.655>
VStem: 31.0146 106.338<134.908 289.206> 247.649 95.9104<140.379 249.5>
LayerCount: 2
Back
SplineSet
471 86 m 1
 538.84765625 85 l 1
 653.255859375 -128.499023438 497.513671875 -244.220703125 301.982421875 -244.220703125 c 0
 141.99609375 -244.220703125 -8.759765625 -151.352539062 54.2900390625 8 c 1
 161 -30 l 1
 100 -174 548.936523438 -176 460.884765625 11 c 0
 471 86 l 1
EndSplineSet
Refer: 3 3498 N 1 0 0 1 0 0 2
Fore
SplineSet
506 68 m 5
 523.84765625 75 l 5
 523.84765625 75 557.7208192 20.6279310235 557.73828125 -43 c 4
 557.7643761 -138.083985012 469.51953125 -223.220703125 319.982421875 -223.220703125 c 4
 170.33203125 -223.220703125 96.4756313226 -144.364216756 95.6220703125 -67 c 4
 95.2122393653 -29.8541488428 107.290039062 -5 107.290039062 -5 c 5
 135 -15 l 5
 135 -15 125.1171875 -35.9990234375 125.310546875 -62 c 4
 125.970462212 -150.738615437 224.322265625 -193.380859375 320 -193.053710938 c 4
 410.424143266 -192.74452597 526.102539062 -146.926757812 526.368164062 -41 c 4
 526.483398438 5.029296875 504.971679688 43.8251953125 496.884765625 61 c 4
 506 68 l 5
135.975585938 383.998046875 m 1
 291.477539062 383.998046875 l 1
 294.510742188 430.854492188 258.8359375 492.75 197 492.776367188 c 0
 121.185546875 492.80859375 120.541992188 422.734375 135.975585938 383.998046875 c 1
286 712 m 1
 328 672 310.067146824 529 416 529 c 0
 496 529 506 562 506 562 c 1
 502 534 l 1
 481.831054688 578.61328125 449.466056543 626.7444797 425.86328125 650.5 c 0
 400.484608265 676.042910687 344.116210938 702.654296875 286 712 c 1
506.240122411 518.137501833 m 1
 489.007115868 508.889627091 460.638211814 499.026441177 418 499 c 0
 257.107421875 498.899414062 307 713 228 713 c 1
 228.139179487 714.269307693 l 1
 222.228515625 742.779296875 l 1
 234.8359375 744.673828125 244.661090292 745.529332318 258 745.55078125 c 0
 331.526367188 745.669921875 401.327148438 719.036132812 449.86328125 670.5 c 0
 513.36328125 607 574.248046875 484.34375 574 300 c 0
 573.798828125 150.307617188 543.883789062 0 418.487304688 0 c 0
 357.498606899 0 324.14119297 41.0898614864 308.477139123 87.5817095258 c 1
 293.885830321 41.3508100954 262.272749867 -1.08045838942e-09 202.487304688 0 c 0
 113.487304688 0 64.86328125 79.03515625 64.86328125 185 c 0
 64.86328125 253.351162374 88.4922025039 316.340789801 107.170765013 352.666992188 c 1
 50.86328125 352.666992188 l 1
 50.86328125 383 l 1
 103.9375 383 l 1
 75.564453125 465.33984375 128.209960938 525.141601562 195 525.092773438 c 0
 270.481445312 525.0390625 334.377929688 454.676757812 322.487304688 353 c 1
 143.246105778 353 l 1
 119.273594296 318.791896506 96.7843986687 264.014630927 96.9169921875 188 c 0
 97.0556640625 108.651367188 127.12109375 30 199.86328125 30 c 0
 287.86328125 30 289.86328125 167.896484375 289.86328125 238.5 c 1
 321.86328125 238.5 l 1
 321.86328125 168.5 328.86328125 30 420.487304688 30 c 0
 522.8515625 30 541.850585938 210.77734375 541.802734375 300 c 0
 541.755423234 388.471833929 527.433282287 460.759602952 506.240122411 518.137501833 c 1
127.268981804 353 m 2
 126.86328125 353 l 2
 126.657619812 352.742582704 126.815355847 352.759722818 127.268981804 353 c 2
EndSplineSet
EndChar

StartChar: si_TI
Encoding: 13 -1 13
Width: 506
VWidth: 0
Flags: HWO
LayerCount: 2
Back
SplineSet
181.131835938 471.313476562 m 0
 214 471.313476562 237.494140625 461.571289062 260.865234375 445.2578125 c 1
 223 345 l 1
 197 360 155.704101562 369.712890625 133.466796875 320.267578125 c 0
 125.833984375 303.295898438 121 280.557617188 121 252.395507812 c 0
 121 168.212890625 176.606445312 115.115234375 230.145507812 115.115234375 c 0
 335.255859375 115.115234375 374.883789062 244.619140625 374.883789062 377.395507812 c 0
 374.883789062 510.4375 336.513671875 639.66796875 233.71484375 639.66796875 c 0
 166.079101562 639.66796875 133.517578125 588.380859375 123.842773438 550.754882812 c 0
 122.473632812 545.430664062 l 1
 -3.626953125 583.720703125 l 1
 -2.0634765625 588.359375 l 0
 23.4130859375 663.9140625 98.7841796875 754.783203125 233.71484375 754.783203125 c 0
 468.872070312 754.783203125 489 488.815429688 489 377.395507812 c 0
 489 265.669921875 465.32421875 0 230.145507812 0 c 0
 78.2744140625 0 11 136.287109375 11 252.395507812 c 0
 11 395.890625 90.8232421875 471.313476562 181.131835938 471.313476562 c 0
EndSplineSet
Fore
SplineSet
39.8056640625 687 m 4
 40.6611328125 809.04296875 161.432617188 839 241 839 c 4
 346.493164062 839 426 777.62890625 426 693 c 4
 426 601 370 584 370 584 c 5
 348 603 l 5
 348 603 398 614.7734375 398 694 c 4
 398 756 331.500976562 808 241 808 c 4
 151 808 73 769 73 694 c 4
 73 663.849609375 82.3447265625 621.075195312 129 621.176757812 c 4
 156.197265625 621.236328125 203.056640625 640 242 640 c 4
 395.051757812 640 449 498.172491573 449 377 c 4
 449 263 445 0 221 0 c 4
 77 0 27 132 27 247 c 4
 27 389 85 448 170 448 c 4
 196 448 219 443 242 432 c 5
 233 403 l 5
 218 410 198 418 170 418 c 4
 86 417 59 341 59 247 c 4
 59 158 94 30 225 30 c 4
 395 30 417 237 417 377 c 4
 417 496.53819725 360.067382812 608 241 608 c 4
 203.522460938 608 169.55859375 589.37890625 126 589.263671875 c 4
 59.423828125 589.086914062 39.609375 658.994140625 39.8056640625 687 c 4
EndSplineSet
EndChar

StartChar: si_TI.rakar
Encoding: 14 -1 14
Width: 506
VWidth: 0
Flags: HW
LayerCount: 2
Back
SplineSet
181.131835938 471.313476562 m 0
 214 471.313476562 237.494140625 461.571289062 260.865234375 445.2578125 c 1
 223 345 l 1
 197 360 155.704101562 369.712890625 133.466796875 320.267578125 c 0
 125.833984375 303.295898438 121 280.557617188 121 252.395507812 c 0
 121 168.212890625 176.606445312 115.115234375 230.145507812 115.115234375 c 0
 335.255859375 115.115234375 374.883789062 244.619140625 374.883789062 377.395507812 c 0
 374.883789062 510.4375 336.513671875 639.66796875 233.71484375 639.66796875 c 0
 166.079101562 639.66796875 133.517578125 588.380859375 123.842773438 550.754882812 c 0
 122.473632812 545.430664062 l 1
 -3.626953125 583.720703125 l 1
 -2.0634765625 588.359375 l 0
 23.4130859375 663.9140625 98.7841796875 754.783203125 233.71484375 754.783203125 c 0
 468.872070312 754.783203125 489 488.815429688 489 377.395507812 c 0
 489 265.669921875 465.32421875 0 230.145507812 0 c 0
 78.2744140625 0 11 136.287109375 11 252.395507812 c 0
 11 395.890625 90.8232421875 471.313476562 181.131835938 471.313476562 c 0
EndSplineSet
Fore
SplineSet
368 72 m 1
 385.84765625 79 l 1
 385.84765625 79 419.720703125 24.6279296875 419.73828125 -39 c 0
 419.764648438 -134.083984375 379.51953125 -219.220703125 229.982421875 -219.220703125 c 0
 86.33203125 -219.220703125 48.4755859375 -137.364257812 47.6220703125 -60 c 0
 47.2119140625 -22.8544921875 59.2900390625 2 59.2900390625 2 c 1
 87 -8 l 1
 87 -8 77.1171875 -28.9990234375 77.310546875 -55 c 0
 77.970703125 -143.73828125 131.322265625 -190.37109375 232 -190.053710938 c 0
 325.423828125 -189.759765625 389.102539062 -144.926757812 389.368164062 -39 c 0
 389.483398438 7.029296875 366.971679688 47.8251953125 358.884765625 65 c 0
 368 72 l 1
39.8056640625 687 m 0
 40.6611328125 809.04296875 161.432617188 839 241 839 c 0
 346.493164062 839 426 777.62890625 426 693 c 0
 426 601 370 584 370 584 c 1
 348 603 l 1
 348 603 398 614.7734375 398 694 c 0
 398 756 331.500976562 808 241 808 c 0
 151 808 73 769 73 694 c 0
 73 663.849609375 82.3447265625 621.075195312 129 621.176757812 c 0
 156.197265625 621.236328125 203.056640625 640 242 640 c 0
 395.051757812 640 449 498.172491573 449 377 c 0
 449 263 445 0 221 0 c 0
 77 0 27 132 27 247 c 0
 27 389 85 448 170 448 c 0
 196 448 219 443 242 432 c 1
 233 403 l 1
 218 410 198 418 170 418 c 0
 86 417 59 341 59 247 c 0
 59 158 94 30 225 30 c 0
 395 30 417 237 417 377 c 0
 417 496.53819725 360.067382812 608 241 608 c 0
 203.522460938 608 169.55859375 589.37890625 126 589.263671875 c 0
 59.423828125 589.086914062 39.609375 658.994140625 39.8056640625 687 c 0
EndSplineSet
EndChar

StartChar: NameMe.15
Encoding: 15 -1 15
Width: 548
VWidth: 0
Flags: HW
HStem: -1.16211 30<199.755 357.988> 394.06 20<155.697 316.257> 566.062 30<172.58 274.201 417.662 466>
VStem: 43.2549 32<157.085 304.027> 101.468 32<405.627 526.125> 347.306 32<331.227 374 464.185 501.014> 452.338 32<422.441 562.287> 465.587 32<408.251 517.788>
LayerCount: 2
Back
Fore
SplineSet
351 464.184570312 m 1xfd
 370 457 l 1
 370 457 345.905273438 592 230.124023438 592 c 0
 156.176757812 592 115.139453524 542.993163197 115.467773438 469 c 0
 115.6953125 417.719726562 148.719726562 377 148.719726562 377 c 1
 177 391 l 1
 177 391 147.772181309 419.169921435 147.692382812 470 c 0
 147.642578125 501.724609375 153.610350379 560.27300873 230 560.0625 c 0
 316.467773438 559.82421875 349.233398438 452.2109375 345.930664062 389 c 1
 341.772460938 390.047851562 368.694335938 386.365234375 363 387 c 1
 363 387 326.83398446 424.201130775 230 424 c 0
 108.227539062 423.747070312 43.2548828125 327.4609375 43.2548828125 229.708007812 c 0
 43.2548828125 117.709960938 121.076171875 -1.162109375 287.260742188 -1.162109375 c 0
 336.032226562 -1.162109375 351.741210938 6.2177734375 361 7 c 1
 345 14 l 1
 345 -206.34765625 l 1
 379.3 -206.34765625 l 1
 379.299804688 23 l 1
 365.305664062 7.76171875 l 1
 458.012635055 37.7952913562 500.241536549 88.7638359081 525 135 c 1
 502.658203125 152.803710938 l 1
 476.085696942 105.064495991 430.840709292 56.2156127543 363 38 c 1
 379 28 l 1
 379.3 331.2265625 l 1
 379.898632813 457.255859375 377 568 466 569 c 1
 466 569 458.337890625 555 458.337890625 519 c 4xfe
 458.337890625 493 465.586914062 476.513671875 465.586914062 453 c 0
 465.586914062 428.473590713 447.94140625 399 421.025390625 372.083984375 c 1
 441.057617188 352.390625 l 1
 476.666992188 388 496.898649337 418.534179891 496.908203125 453 c 0
 496.913016923 484.70703125 489.642578125 496 489.642578125 522 c 4
 489.642578125 540 489.714927584 553.726233234 495.235351562 561.216796875 c 2
 503.064453125 566.341796875 l 1
 496.908203125 574.990234375 479.13671875 600.45703125 478.859375 600.272460938 c 1
 381 600.272460938 351.465820312 521.724609375 351 464.184570312 c 1xfd
358.305664062 37.3046875 m 1
 351.041015625 36.60546875 328.041015625 29.2685546875 287.303710938 29.2685546875 c 0
 117.856445312 29.2685546875 74.25 166.434570312 74.25 228 c 0
 74.25 332.23046875 141.006806319 393.972058767 232.638671875 394.059570312 c 0
 322.232430066 394.145135395 358 353 356 356 c 1
 368.278320312 353.360351562 347.305664062 374 347.305664062 374 c 1
 345 22 l 1
 358.305664062 37.3046875 l 1
EndSplineSet
EndChar

StartChar: NameMe.16
Encoding: 16 -1 16
Width: 546
VWidth: 0
Flags: W
HStem: 0 35<85 502>
VStem: 81 32<35 520> 469 33<0 520>
LayerCount: 2
Back
Fore
SplineSet
469 520 m 1
 502 520 l 1
 502 0 l 1
 469 0 l 1
 469 520 l 1
85 0 m 1
 85 35 l 1
 502 35 l 1
 502 0 l 1
 85 0 l 1
81 520 m 1
 113 520 l 1
 113 0 l 1
 81 0 l 1
 81 520 l 1
EndSplineSet
EndChar

StartChar: NameMe.17
Encoding: 17 -1 17
Width: 684
VWidth: 0
Flags: W
HStem: 1 122<130.19 259 363 521.032> 451.179 92.9785<399.344 512.959>
VStem: 27.4102 110<96 520.405> 259 110<96 408.771> 547 110<136.707 405.444>
LayerCount: 2
Back
Fore
SplineSet
544 2 m 2
 545.243164062 1 l 1
 59.9052734375 1 l 2
 57.41015625 1 l 1
 57.41015625 517.405273438 l 1
 93.400390625 517.405273438 l 1
 93.400390625 34 l 1
 296 34 l 1
 296 313.172851562 l 0
 296.078125 493.520507812 402.087890625 524.409179688 454.370117188 524.157226562 c 0
 592.9375 523.48828125 632.262695312 376.747070312 631 284.4296875 c 0
 629.279296875 158.608398438 567 47 544 2 c 2
522.032226562 34 m 1
 522.032226562 34 597.643554688 168.642578125 597.317382812 284.66796875 c 0
 597.03125 386.321289062 550.81640625 490.198242188 456.112304688 490.178710938 c 0
 373.055664062 490.161132812 330.766601562 422.10546875 330 312.272460938 c 0
 330 34 l 1
 522.032226562 34 l 1
EndSplineSet
EndChar

StartChar: NameMe.18
Encoding: 18 -1 18
Width: 747
VWidth: 0
Flags: W
HStem: 1 122<155.38 237.903 471.33 631.973> 194.393 100<156.582 236.674> 449.179 100<231.932 364.931>
VStem: 244.15 105<103.042 186.716> 422.205 105<160.845 383.417> 631.973 110<95.7695 520.405>
LayerCount: 2
Back
Fore
SplineSet
103.176757812 118.171875 m 0
 103.176757812 68.171875 144.176757812 27.171875 194.176757812 27.171875 c 0
 244.176757812 27.171875 285.176757812 68.171875 285.176757812 118.171875 c 0
 285.176757812 168.171875 244.176757812 209.171875 194.176757812 209.171875 c 0
 144.176757812 209.171875 103.176757812 168.171875 103.176757812 118.171875 c 0
71.1767578125 118.171875 m 0
 71.1767578125 186.171875 126.176757812 241.171875 194.176757812 241.171875 c 0
 262.176757812 241.171875 317.176757812 186.171875 317.176757812 118.171875 c 0
 317.176757812 50.171875 262.176757812 -4.828125 194.176757812 -4.828125 c 0
 126.176757812 -4.828125 71.1767578125 50.171875 71.1767578125 118.171875 c 0
202.5078125 -4.990234375 m 1049
202.5078125 -4.990234375 m 1
 202.5078125 -4.990234375 l 0
 85.2463626375 -4.990234375 39.8464583946 115.531270021 39.9941167832 225.999997074 c 0
 40.2671036787 430.231637011 160.098630317 533.170238228 285.2578125 534.157226562 c 0
 422.840820312 535.2421875 507.095081232 451.749021674 506.262695312 284.4296875 c 0
 505.596679688 147.816756536 436.638671875 32.9429100343 436.330078125 34.76953125 c 5
 665.97265625 34.76953125 l 5
 665.97265625 520.405273438 l 1
 701.752929688 520.405273438 l 1
 701.752929688 1 l 1
 699.2578125 1 l 2
 392.919921875 1 l 1
 392.590820312 33 l 6
 392.590820312 33 471.453905443 156.068348291 471.205078125 286.66796875 c 0
 470.9453125 420.321289062 403.70410145 499.19331818 286 499.178710938 c 0
 175.833007812 499.165039062 74.755946535 404.657226421 74.7666015625 218 c 0
 74.7701367888 156.069091798 94 123 94 123 c 1
 105 82 l 1
 105 45.4409098086 148.289653998 27.171875 201.176757812 27.171875 c 0
 259.815429688 27.171875 192 32 202.5078125 -4.990234375 c 1
EndSplineSet
EndChar

StartChar: NameMe.19
Encoding: 19 -1 19
Width: 554
VWidth: 0
Flags: W
HStem: -253.984 27.209<176.356 316.845> 119 54.1201<108.739 209.261> 310.88 54.1201<108.739 209.261> 502.437 34.792<188.457 347.107>
VStem: 250 32<191.739 292.261> 289.237 26.6348<-44.9689 67> 482.689 32.0215<156.306 344.005>
LayerCount: 2
Back
Fore
SplineSet
68 242 m 0
 68 192 109 151 159 151 c 0
 209 151 250 192 250 242 c 0
 250 292 209 333 159 333 c 0
 109 333 68 292 68 242 c 0
36 242 m 0
 36 310 91 365 159 365 c 0
 227 365 282 310 282 242 c 0
 282 174 227 119 159 119 c 0
 91 119 36 174 36 242 c 0
50 185 m 1
 -6 278 40.400390625 527 266 527 c 4
 454 527 515 377 515 232 c 4
 515 64.310546875 401 -37 331 -71 c 1
 329.758789062 -74.7841796875 333.91796875 -52.84765625 333 -56 c 1
 369.942382812 -85.76953125 432.452148438 -106.40625 489 -112 c 1
 490 -166 l 1
 396 -178.571289062 403 -261 245 -261 c 0
 151.1171875 -261 108.200195312 -194.698242188 93 -166 c 1
 116 -147 l 1
 133.142578125 -174.651367188 164.857421875 -229 248 -229 c 0
 368.911132812 -229 389 -145.66015625 473 -135 c 1
 463 -144 l 1
 400.333007812 -128.870117188 275 -110.571289062 275 12 c 0
 275 34 283 57 283 57 c 1
 314 57 l 1
 307.846679688 41.953125 305.340820312 26.5361328125 305.31640625 12 c 0
 305.263671875 -19.287109375 316.985351562 -42 329 -51 c 1
 308 -35 l 1
 386.314453125 -10.1875 480.744140625 105.942382812 483 230 c 0
 485 340.839694656 438 494 266 494 c 4
 81.845703125 494 30 285.552447552 76 206 c 1
 50 185 l 1
EndSplineSet
EndChar

StartChar: NameMe.20
Encoding: 20 -1 20
Width: 419
VWidth: 0
Flags: W
HStem: -210.675 30<233.436 341.79> 14.7363 30<229.928 329.009> 373.958 30<161.362 319.186> 554.079 30<178.851 268.528>
VStem: 29.6504 32<139.671 296.88> 116.753 32<410.802 522.361> 146.64 32<-125.851 -11.178> 320.991 32<396.884 488.73>
LayerCount: 2
Back
Fore
SplineSet
62.1982421875 224.068359375 m 1xfd
 62.19921875 338.298828125 151 373.958007812 227.03515625 373.958007812 c 0
 283.665039062 373.958007812 343 355 343 355 c 1
 343 355 353 389.110351562 353 417 c 0
 353 528.099609375 293.07421875 584 224.404296875 584 c 0
 150.319335938 584 116.352539062 521.865234375 116.752929688 473 c 0
 117.221679688 415.819335938 145 382 145 382 c 1
 168.701171875 396.8984375 l 1
 168.701171875 396.8984375 149.235351562 434.407226562 148.98828125 473 c 0
 148.78515625 504.79296875 164.80078125 554.075195312 224 554.079101562 c 0
 299.25 554.083984375 321.203125 462.204101562 320.991210938 417 c 0
 320.9609375 410.524414062 320.393554688 399.530273438 319.2109375 392 c 1
 319.2109375 392 278.721679688 403.905273438 228 403.915039062 c 0
 97.840820787 403.940099071 29.650390625 331.239257812 29.650390625 224.606445312 c 0
 29.650390625 111.8984375 89.3931524777 15.5217208935 244.65625 14.736328125 c 0
 306.626953125 14.4228515625 356 38.8662109375 356 38.8662109375 c 0
 346 66 l 0
 324.369140625 55.55078125 281.576985902 45.1720667508 248 45 c 0
 209.696289062 44.8037109375 62.3955078125 53.8984375 62.1982421875 224.068359375 c 1xfd
183 25.8984375 m 1
 183 25.8984375 146.85546875 -4.6611328125 146.639648438 -69 c 0xfb
 146.387978996 -144.025962931 198.692382812 -210.221679688 285 -210.674804688 c 0
 344.827148438 -210.98828125 390.448242188 -183.4296875 438 -112.1015625 c 1
 414 -95.1015625 l 1
 393.3671875 -134.026367188 355.751953125 -180.33984375 284 -180.306640625 c 0
 213.224609375 -180.2734375 178.9765625 -119.196289062 179 -70 c 0
 179.028320312 -9.6806640625 214 20 214 20 c 1
 204 27 l 1
 183 25.8984375 l 1
EndSplineSet
EndChar
